# xmcd CD database file
#
# Track frame offsets:
#	150
#	29511
#	56614
#	92634
#	124568
#	151111
#	178715
#	208381
#	242632
#	274154
#
# Disc length: 4156 seconds
#
# Revision: 0
# Processed by: cddbd v1.5.2PL0 Copyright (c) Steve Scherf et al.
# Submitted via: CDex 1.70beta2
#
DISCID=87103a0a
DTITLE=Chris Chabris - The Invisible Gorilla
DYEAR=2010
DGENRE=Audiobook
TTITLE0=Invisible Gorilla D5T01
TTITLE1=Invisible Gorilla D5T02
TTITLE2=Invisible Gorilla D5T03
TTITLE3=Invisible Gorilla D5T04
TTITLE4=Invisible Gorilla D5T05
TTITLE5=Invisible Gorilla D5T06
TTITLE6=Invisible Gorilla D5T07
TTITLE7=Invisible Gorilla D5T08
TTITLE8=Invisible Gorilla D5T09
TTITLE9=Invisible Gorilla D5T10
EXTD=YEAR: 2010
EXTT0=
EXTT1=
EXTT2=
EXTT3=
EXTT4=
EXTT5=
EXTT6=
EXTT7=
EXTT8=
EXTT9=
PLAYORDER=
